<svg xmlns="http://www.w3.org/2000/svg" viewBox="0 0 345.2 400">
  <path d="M39.6,0.2 L68.3,0.0 L113.3,0.7 L148.1,0.7 L148.3,73.8 L148.1,127.2 L191.3,165.1 L232.2,202.3 L264.4,232.6 L287.6,255.0 L328.4,296.0 L328.4,301.3 L333.9,308.2 L338.5,319.3 L345.2,325.3 L341.1,330.9 L335.8,333.6 L331.7,341.0 L333.0,351.0 L332.1,357.2 L325.3,363.2 L327.5,379.0 L332.1,379.2 L333.9,387.1 L332.1,390.8 L325.5,392.4 L280.9,396.3 L244.7,400.0 L240.7,394.5 L240.5,385.7 L237.9,375.3 L233.1,367.9 L222.6,357.7 L209.2,348.2 L206.6,350.8 L201.5,349.1 L202.2,345.0 L196.3,336.4 L188.4,338.3 L174.4,332.0 L172.4,326.9 L163.0,320.7 L152.3,320.9 L143.5,318.2 L132.3,319.3 L126.4,313.8 L127.7,302.0 L125.7,300.1 L127.0,291.8 L118.1,285.5 L117.8,277.0 L114.4,276.5 L108.9,269.1 L105.1,267.5 L103.4,262.9 L90.5,245.5 L84.5,240.5 L83.2,226.8 L85.7,228.0 L88.1,219.9 L83.3,212.5 L77.5,213.4 L69.7,206.7 L67.0,201.4 L67.5,196.3 L63.7,189.6 L63.7,178.5 L69.9,178.5 L67.3,163.0 L64.6,164.6 L64.0,172.3 L57.4,173.9 L49.5,168.1 L48.2,158.2 L43.1,150.3 L36.2,145.4 L32.6,139.9 L22.6,129.0 L24.3,125.8 L19.7,111.7 L21.7,103.8 L18.8,92.0 L10.1,80.5 L1.7,74.0 L0.0,66.4 L8.5,47.9 L10.1,41.6 L8.5,36.8 L11.6,24.0 L8.8,12.5 L5.2,9.7 L6.6,0.5 L39.6,0.2 Z" fill="#2f5db3"/>
</svg>
